<?xml version="1.0" standalone="no"?>
<!DOCTYPE svg PUBLIC "-//W3C//DTD SVG 20010904//EN"
 "http://www.w3.org/TR/2001/REC-SVG-20010904/DTD/svg10.dtd">
<svg version="1.0" xmlns="http://www.w3.org/2000/svg"
 width="173.000000pt" height="173.000000pt" viewBox="0 0 173.000000 173.000000"
 preserveAspectRatio="xMidYMid meet">
<metadata>
Created by potrace 1.11, written by Peter Selinger 2001-2013
</metadata>
<g transform="translate(0.000000,173.000000) scale(0.100000,-0.100000)"
fill="#000000" stroke="none">
<path d="M568 948 l-3 -133 -30 78 c-16 42 -32 77 -35 77 -4 0 -15 -6 -25 -14
-18 -13 -18 -15 3 -66 12 -29 22 -58 22 -64 0 -6 -38 27 -84 73 l-83 83 -17
-23 c-16 -23 -15 -25 66 -108 46 -46 76 -81 68 -78 -8 2 -39 14 -68 26 l-54
21 -6 -22 c-3 -13 -6 -25 -6 -27 -1 -2 31 -16 69 -31 l70 -29 -125 -3 -125 -3
-3 -27 -3 -27 118 -3 118 -3 -60 -24 c-33 -13 -61 -25 -63 -27 -2 -1 2 -12 8
-24 13 -24 17 -24 100 9 l55 22 -84 -84 c-78 -79 -83 -86 -69 -105 13 -20 15
-19 58 22 25 23 66 61 92 85 l48 43 -30 -72 c-17 -40 -29 -74 -28 -75 2 -1 13
-7 25 -14 20 -10 23 -7 50 62 l28 72 3 -123 3 -122 30 0 31 0 -4 110 c-1 61 0
110 3 110 3 0 17 -27 29 -59 22 -55 25 -58 47 -48 28 13 28 12 -2 81 -14 31
-25 62 -25 69 0 6 40 -29 90 -78 l90 -90 20 21 21 20 -87 83 c-47 45 -84 84
-83 85 2 2 34 -9 71 -24 l66 -27 11 24 c10 22 8 25 -26 40 -21 8 -49 20 -63
27 -19 8 81 12 428 14 422 2 452 3 452 20 -1 42 3 42 -466 44 l-449 3 63 25
c62 25 67 30 54 62 -6 16 -12 15 -67 -7 -33 -14 -64 -24 -69 -22 -5 2 28 37
73 78 44 42 81 81 81 86 0 6 -7 16 -16 23 -13 12 -27 2 -97 -68 -45 -45 -85
-82 -89 -82 -3 0 7 30 22 67 l29 68 -22 12 c-27 14 -28 13 -57 -59 -13 -32
-26 -58 -29 -58 -3 0 -6 53 -6 117 l0 118 -27 3 -27 3 -3 -133z"/>
</g>
</svg>
